<svg xmlns="http://www.w3.org/2000/svg" viewBox="0 0 200 200">
  <!-- 定义渐变 -->
  <defs>
    <linearGradient id="gradientBlue" x1="0%" y1="0%" x2="100%" y2="100%">
      <stop offset="0%" style="stop-color:#4A90E2;stop-opacity:1" />
      <stop offset="100%" style="stop-color:#357ABD;stop-opacity:1" />
    </linearGradient>
    <linearGradient id="gradientGreen" x1="0%" y1="0%" x2="100%" y2="100%">
      <stop offset="0%" style="stop-color:#34A853;stop-opacity:1" />
      <stop offset="100%" style="stop-color:#2E8545;stop-opacity:1" />
    </linearGradient>
  </defs>
  
  <!-- 书本底部 -->
  <path d="M 40 140
           C 40 140, 160 140, 160 140
           C 160 140, 160 160, 160 160
           C 160 160, 40 160, 40 160
           C 40 160, 40 140, 40 140
           Z"
        fill="#357ABD"/>
  
  <!-- 打开的书本 -->
  <path d="M 40 60
           C 40 140, 100 160, 100 160
           C 100 160, 160 140, 160 60
           C 160 60, 100 80, 100 80
           C 100 80, 40 60, 40 60
           Z"
        fill="url(#gradientBlue)"/>
  
  <!-- 树苗 -->
  <path d="M 95 40
           C 95 40, 105 20, 105 20
           L 100 60
           M 85 50 L 115 50
           M 90 35 L 110 35"
        fill="none"
        stroke="url(#gradientGreen)"
        stroke-width="4"
        stroke-linecap="round"/>
  
  <!-- 书页纹理 -->
  <path d="M 60 80 L 90 90
           M 60 100 L 90 110
           M 110 90 L 140 80
           M 110 110 L 140 100"
        stroke="white"
        stroke-width="2"
        stroke-opacity="0.5"/>
</svg>